G04*
G04 #@! TF.GenerationSoftware,Altium Limited,Altium Designer,25.7.1 (20)*
G04*
G04 Layer_Physical_Order=1*
G04 Layer_Color=255*
%FSLAX44Y44*%
%MOMM*%
G71*
G04*
G04 #@! TF.SameCoordinates,89B32CEB-4FF3-43B7-977F-634E7E319435*
G04*
G04*
G04 #@! TF.FilePolarity,Positive*
G04*
G01*
G75*
%ADD10R,1.3000X0.7000*%
%ADD11C,0.3810*%
%ADD12R,1.5000X1.5000*%
%ADD13C,1.5000*%
%ADD14C,1.2000*%
%ADD15O,1.0000X2.0000*%
%ADD16O,1.0000X2.0000*%
%ADD17C,1.2700*%
G36*
X250000Y0D02*
X0D01*
Y170000D01*
X250000D01*
Y0D01*
D02*
G37*
%LPC*%
G36*
X240040Y155440D02*
X219960D01*
Y149932D01*
X209400D01*
X209400Y149932D01*
X207666Y149587D01*
X206195Y148605D01*
X192631Y135040D01*
X180960D01*
Y133532D01*
X139040D01*
Y135040D01*
X120960D01*
Y133532D01*
X79040D01*
Y135040D01*
X60960D01*
Y133532D01*
X29040D01*
Y135040D01*
X10960D01*
Y122960D01*
X29040D01*
Y124468D01*
X60960D01*
Y122960D01*
X79040D01*
Y124468D01*
X120960D01*
Y122960D01*
X139040D01*
Y124468D01*
X180960D01*
Y122960D01*
X199040D01*
Y128631D01*
X211277Y140868D01*
X219960D01*
Y135360D01*
X240040D01*
Y155440D01*
D02*
G37*
G36*
X231322Y130040D02*
X231270D01*
Y121270D01*
X240040D01*
Y121322D01*
X239356Y123875D01*
X238034Y126165D01*
X236165Y128034D01*
X233875Y129356D01*
X231322Y130040D01*
D02*
G37*
G36*
X228730D02*
X228678D01*
X226125Y129356D01*
X223835Y128034D01*
X221966Y126165D01*
X220644Y123875D01*
X219960Y121322D01*
Y121270D01*
X228730D01*
Y130040D01*
D02*
G37*
G36*
X109170Y118890D02*
X106830D01*
X104569Y118284D01*
X102541Y117114D01*
X100886Y115459D01*
X100351Y114532D01*
X79040D01*
Y116040D01*
X60960D01*
Y110369D01*
X39495Y88905D01*
X38513Y87434D01*
X38393Y86832D01*
X37436Y86541D01*
X37144Y86834D01*
X35196Y87958D01*
X33024Y88540D01*
X30776D01*
X29982Y88327D01*
X24532Y93777D01*
Y103960D01*
X29040D01*
Y116040D01*
X10960D01*
Y103960D01*
X15468D01*
Y91900D01*
X15813Y90166D01*
X16795Y88695D01*
X23573Y81918D01*
X23360Y81124D01*
Y78876D01*
X23942Y76704D01*
X25066Y74756D01*
X26418Y73405D01*
Y31677D01*
X26198Y31586D01*
X24622Y30378D01*
X24150Y29762D01*
X23150D01*
X22678Y30378D01*
X21102Y31586D01*
X19268Y32346D01*
X18570Y32438D01*
Y20000D01*
Y7562D01*
X19268Y7654D01*
X21102Y8414D01*
X22678Y9622D01*
X23150Y10238D01*
X24150D01*
X24622Y9622D01*
X26198Y8414D01*
X28032Y7654D01*
X30000Y7395D01*
X31968Y7654D01*
X33802Y8414D01*
X35378Y9622D01*
X35850Y10238D01*
X36850D01*
X37322Y9622D01*
X38898Y8414D01*
X40732Y7654D01*
X42700Y7395D01*
X44668Y7654D01*
X46502Y8414D01*
X48078Y9622D01*
X49286Y11198D01*
X50046Y13032D01*
X50305Y15000D01*
Y25000D01*
X50046Y26968D01*
X49286Y28803D01*
X48078Y30378D01*
X47232Y31026D01*
Y83823D01*
X67369Y103960D01*
X79040D01*
Y105468D01*
X100351D01*
X100886Y104541D01*
X102541Y102886D01*
X104569Y101716D01*
X106830Y101110D01*
X109170D01*
X110695Y101518D01*
X111213Y100622D01*
X105510Y94920D01*
X104528Y93449D01*
X104183Y91715D01*
Y87600D01*
X102856Y86834D01*
X101266Y85244D01*
X100142Y83296D01*
X99560Y81124D01*
Y78876D01*
X100142Y76704D01*
X101266Y74756D01*
X102856Y73166D01*
X103568Y72755D01*
Y43543D01*
X103913Y41808D01*
X104895Y40338D01*
X142883Y2350D01*
X144353Y1368D01*
X146088Y1023D01*
X146088Y1023D01*
X166612D01*
X168347Y1368D01*
X169817Y2350D01*
X174924Y7458D01*
X175400Y7395D01*
X177368Y7654D01*
X179202Y8414D01*
X180778Y9622D01*
X181986Y11198D01*
X182746Y13032D01*
X183005Y15000D01*
Y25000D01*
X182746Y26968D01*
X181986Y28803D01*
X180778Y30378D01*
X179202Y31586D01*
X177368Y32346D01*
X177102Y32381D01*
X176780Y33328D01*
X188610Y45157D01*
X188610Y45158D01*
X189592Y46628D01*
X189937Y48362D01*
Y103960D01*
X191157D01*
X191595Y103873D01*
X191595Y103873D01*
X197818D01*
X219773Y81918D01*
X219560Y81124D01*
Y78876D01*
X220142Y76704D01*
X221266Y74756D01*
X222856Y73166D01*
X224804Y72042D01*
X226976Y71460D01*
X229224D01*
X231396Y72042D01*
X233344Y73166D01*
X234934Y74756D01*
X236058Y76704D01*
X236640Y78876D01*
Y81124D01*
X236058Y83296D01*
X234934Y85244D01*
X233344Y86834D01*
X231396Y87958D01*
X229224Y88540D01*
X226976D01*
X226182Y88327D01*
X202900Y111610D01*
X201429Y112592D01*
X199695Y112937D01*
X199040D01*
Y116040D01*
X180960D01*
Y108843D01*
X180873Y108405D01*
Y50240D01*
X163176Y32542D01*
X162700Y32605D01*
X160732Y32346D01*
X158897Y31586D01*
X157322Y30378D01*
X156850Y29762D01*
X155850D01*
X155378Y30378D01*
X153802Y31586D01*
X151968Y32346D01*
X151270Y32438D01*
Y20000D01*
X150000D01*
Y18730D01*
X142395D01*
Y16964D01*
X141471Y16581D01*
X112632Y45420D01*
Y72755D01*
X113344Y73166D01*
X114934Y74756D01*
X116058Y76704D01*
X116640Y78876D01*
Y81124D01*
X116058Y83296D01*
X114934Y85244D01*
X113344Y86834D01*
X113247Y86889D01*
Y89838D01*
X127369Y103960D01*
X139040D01*
Y116040D01*
X120960D01*
Y110369D01*
X117378Y106787D01*
X116482Y107305D01*
X116890Y108830D01*
Y111170D01*
X116284Y113431D01*
X115114Y115459D01*
X113459Y117114D01*
X111431Y118284D01*
X109170Y118890D01*
D02*
G37*
G36*
X240040Y118730D02*
X231270D01*
Y109960D01*
X231322D01*
X233875Y110644D01*
X236165Y111966D01*
X238034Y113835D01*
X239356Y116125D01*
X240040Y118678D01*
Y118730D01*
D02*
G37*
G36*
X228730D02*
X219960D01*
Y118678D01*
X220644Y116125D01*
X221966Y113835D01*
X223835Y111966D01*
X226125Y110644D01*
X228678Y109960D01*
X228730D01*
Y118730D01*
D02*
G37*
G36*
X153024Y88540D02*
X150776D01*
X148604Y87958D01*
X146656Y86834D01*
X145066Y85244D01*
X143942Y83296D01*
X143360Y81124D01*
Y78876D01*
X143942Y76704D01*
X145066Y74756D01*
X146656Y73166D01*
X148604Y72042D01*
X150776Y71460D01*
X153024D01*
X155196Y72042D01*
X157144Y73166D01*
X158734Y74756D01*
X159858Y76704D01*
X160440Y78876D01*
Y81124D01*
X159858Y83296D01*
X158734Y85244D01*
X157144Y86834D01*
X155196Y87958D01*
X153024Y88540D01*
D02*
G37*
G36*
X148730Y32438D02*
X148032Y32346D01*
X146198Y31586D01*
X144622Y30378D01*
X143414Y28803D01*
X142654Y26968D01*
X142395Y25000D01*
Y21270D01*
X148730D01*
Y32438D01*
D02*
G37*
G36*
X16030D02*
X15332Y32346D01*
X13498Y31586D01*
X11922Y30378D01*
X10714Y28803D01*
X9954Y26968D01*
X9695Y25000D01*
Y21270D01*
X16030D01*
Y32438D01*
D02*
G37*
G36*
Y18730D02*
X9695D01*
Y15000D01*
X9954Y13032D01*
X10714Y11198D01*
X11922Y9622D01*
X13498Y8414D01*
X15332Y7654D01*
X16030Y7562D01*
Y18730D01*
D02*
G37*
%LPD*%
D10*
X190000Y129000D02*
D03*
Y110000D02*
D03*
X130000Y129000D02*
D03*
Y110000D02*
D03*
X70000Y129000D02*
D03*
Y110000D02*
D03*
X20000Y129000D02*
D03*
Y110000D02*
D03*
D11*
X70000D02*
X108000D01*
X108715Y91715D02*
X127000Y110000D01*
X130000D01*
X108715Y80615D02*
Y91715D01*
X108100Y80000D02*
X108715Y80615D01*
X108100Y43543D02*
Y80000D01*
Y43543D02*
X146088Y5555D01*
X166612D01*
X175400Y14343D01*
Y20000D01*
X187000Y110000D02*
X190000D01*
X185405Y108405D02*
X187000Y110000D01*
X185405Y48362D02*
Y108405D01*
X162700Y25657D02*
X185405Y48362D01*
X162700Y20000D02*
Y25657D01*
X190000Y110000D02*
X191595Y108405D01*
X199695D01*
X228100Y80000D01*
X67000Y110000D02*
X70000D01*
X42700Y85700D02*
X67000Y110000D01*
X42700Y20000D02*
Y85700D01*
X30000Y20000D02*
X30950Y20950D01*
Y79050D01*
X31900Y80000D01*
X20000Y91900D02*
X31900Y80000D01*
X20000Y91900D02*
Y110000D01*
X209400Y145400D02*
X230000D01*
X193000Y129000D02*
X209400Y145400D01*
X190000Y129000D02*
X193000D01*
X130000D02*
X190000D01*
X70000D02*
X130000D01*
X20000D02*
X70000D01*
D12*
X230000Y145400D02*
D03*
D13*
Y120000D02*
D03*
D14*
X108100Y80000D02*
D03*
X31900D02*
D03*
X228100D02*
D03*
X151900D02*
D03*
D15*
X175400Y20000D02*
D03*
X150000D02*
D03*
X42700D02*
D03*
X17300D02*
D03*
D16*
X162700D02*
D03*
X30000D02*
D03*
D17*
X108000Y110000D02*
D03*
M02*
